<svg xmlns="http://www.w3.org/2000/svg" version="1.1" xmlns:xlink="http://www.w3.org/1999/xlink" width="200" height="200"><svg xmlns="http://www.w3.org/2000/svg" version="1.1" xmlns:xlink="http://www.w3.org/1999/xlink" viewBox="0 0 200 200"><rect width="200" height="200" fill="url('#gradient')"></rect><defs><linearGradient id="SvgjsLinearGradient1001" gradientTransform="rotate(45 0.5 0.5)"><stop offset="0%" stop-color="#cbd7db"></stop><stop offset="100%" stop-color="#cbd7db"></stop></linearGradient></defs><g><g fill="#27446d" transform="matrix(6.582857142857143,0,0,6.582857142857143,2.9346763208934306,146.80349003110612)" stroke="#27446d" stroke-width="0.2"><path d="M1.07-14.22L5.58-14.22L8.75-4.33L11.91-14.22L16.43-14.22L16.43 0L12.99 0L12.99-3.32L13.32-10.12L9.88 0L7.62 0L4.17-10.13L4.50-3.32L4.50 0L1.07 0L1.07-14.22ZM27.42-8.57L27.42-6.03L22.03-6.03L22.03-2.64L28.40-2.64L28.40 0L18.60 0L18.60-14.22L28.42-14.22L28.42-11.57L22.03-11.57L22.03-8.57L27.42-8.57Z"></path></g></g></svg><style>@media (prefers-color-scheme: light) { :root { filter: none; } }
@media (prefers-color-scheme: dark) { :root { filter: none; } }
</style></svg>